<svg xmlns="http://www.w3.org/2000/svg" version="1.1" xmlns:xlink="http://www.w3.org/1999/xlink" xmlns:svgjs="http://svgjs.dev/svgjs" width="1000" height="1000" viewBox="0 0 1000 1000"><rect width="1000" height="1000" fill="#ffffff"></rect><g transform="matrix(0.7,0,0,0.7,150.38944182500092,199.1854061286004)"><svg viewBox="0 0 380 327" data-background-color="#fafafa" preserveAspectRatio="xMidYMid meet" height="860" width="1000" xmlns="http://www.w3.org/2000/svg" xmlns:xlink="http://www.w3.org/1999/xlink"><g id="tight-bounds" transform="matrix(1,0,0,1,-0.211411276429061,-0.0992983000973311)"><svg viewBox="0 0 380.4191641351676 327.2" height="327.2" width="380.4191641351676"><g><svg viewBox="0 0 380.4191641351676 327.2" height="327.2" width="380.4191641351676"><g><svg viewBox="0 0 380.4191641351676 327.2" height="327.2" width="380.4191641351676"><g id="textblocktransform"><svg viewBox="0 0 380.4191641351676 327.2" height="327.2" width="380.4191641351676" id="textblock"><g><svg viewBox="0 0 380.4191641351676 327.2" height="327.2" width="380.4191641351676"><g transform="matrix(1,0,0,1,0,0)"><svg width="380.4191641351676" viewBox="12.681124687194824 -5.180013179779053 31.566238403320312 27.15023422241211" height="327.2" data-palette-color="#130912"><path d="M17.931 21.507v0c-1.328-0.324-2.412-0.842-3.255-1.555-0.842-0.713-1.419-1.54-1.731-2.481-0.313-0.941-0.347-1.91-0.104-2.907v0c0.058-0.24 0.155-0.395 0.288-0.465 0.135-0.077 0.281-0.096 0.436-0.059v0c0.149 0.036 0.276 0.122 0.38 0.258 0.106 0.129 0.135 0.29 0.088 0.484v0c-0.234 0.959-0.192 1.816 0.124 2.573 0.31 0.755 0.826 1.382 1.549 1.88 0.716 0.497 1.553 0.863 2.511 1.097v0c1.632 0.398 3.015 0.258 4.148-0.42 1.134-0.684 1.932-1.972 2.393-3.863v0l3.942-16.166-5.188-1.265c-0.175-0.043-0.295-0.141-0.36-0.294-0.066-0.153-0.079-0.308-0.042-0.463v0c0.032-0.13 0.104-0.242 0.216-0.338 0.121-0.101 0.278-0.128 0.473-0.081v0l5.781 1.41c0.149 0.036 0.273 0.118 0.372 0.245 0.091 0.132 0.113 0.295 0.066 0.49v0l-4.084 16.749c-0.398 1.632-0.998 2.869-1.8 3.709-0.802 0.841-1.737 1.367-2.805 1.581-1.068 0.213-2.2 0.174-3.398-0.119zM28.903 21.956v0c-0.15 0.031-0.297 0.01-0.442-0.062-0.138-0.074-0.227-0.209-0.267-0.405v0l-4.701-22.922c-0.044-0.216-0.016-0.375 0.085-0.477 0.108-0.104 0.237-0.171 0.388-0.202v0c0.157-0.032 0.316 0.017 0.479 0.146 0.161 0.123 0.317 0.268 0.467 0.435 0.15 0.167 0.258 0.297 0.325 0.393v0l8.968 11.268 3.836-13.894c0.044-0.118 0.095-0.282 0.154-0.491 0.059-0.209 0.145-0.404 0.258-0.584 0.112-0.186 0.233-0.293 0.364-0.32v0c0.176-0.036 0.328-0.026 0.455 0.03 0.127 0.056 0.213 0.191 0.257 0.406v0l4.702 22.923c0.04 0.196 0.008 0.356-0.096 0.479-0.097 0.122-0.225 0.199-0.381 0.231v0c-0.15 0.031-0.297 0.01-0.442-0.062-0.138-0.074-0.227-0.209-0.267-0.405v0l-4.221-20.581-3.773 13.258c-0.059 0.243-0.127 0.424-0.205 0.542-0.084 0.119-0.179 0.19-0.284 0.212v0c-0.091 0.019-0.203-0.009-0.334-0.085-0.125-0.077-0.265-0.214-0.421-0.414v0l-8.649-10.71 4.222 20.581c0.04 0.196 0.008 0.356-0.096 0.479-0.097 0.122-0.225 0.199-0.381 0.231z" opacity="1" transform="matrix(1,0,0,1,0,0)" fill="#000000" class="wordmark-text-0" data-fill-palette-color="primary" id="text-0"></path></svg></g></svg></g></svg></g></svg></g><g></g></svg></g><defs></defs></svg><rect width="380.4191641351676" height="327.2" fill="none" stroke="none" visibility="hidden"></rect></g></svg></g></svg>